<?xml version="1.0" encoding="utf-8"?>
<!DOCTYPE svg PUBLIC "-//W3C//DTD SVG 1.0//EN" "http://www.w3.org/TR/2001/REC-SVG-20010904/DTD/svg10.dtd">
<svg version="1.0" xmlns="http://www.w3.org/2000/svg" width="490px" height="172px" viewBox="0 0 490 172" preserveAspectRatio="xMidYMid meet">
 <g fill="#01000b">
  <path d="M302.7 146.8 l-26.7 -12.2 0.2 -48.4 0.3 -48.5 26.3 -12 c14.4 -6.6 26.5 -11.8 26.7 -11.5 0.3 0.3 0.4 32.9 0.3 72.6 l-0.3 72.1 -26.8 -12.1z m21.3 -25.3 l0 -6.5 -13 0 -13 0 0 -33.5 0 -33.5 -8.5 0 -8.5 0 0 40 0 40 21.5 0 21.5 0 0 -6.5z"/>
  <path d="M83.7 126.3 c-6.2 -2.1 -13.1 -8.2 -16.5 -14.7 -2.4 -4.6 -2.7 -6.2 -2.7 -15.1 0 -11.4 1.8 -16.4 8.2 -23 11.3 -11.7 32 -12.1 45 -1.1 1.8 1.5 4.6 5.6 6.3 9 5 10.1 4.3 23.3 -1.6 32.7 -7.3 11.6 -24.3 17 -38.7 12.2z m21 -13.9 c1.6 -1.1 3.8 -4 5.1 -6.5 2 -3.7 2.3 -5.5 1.9 -11 -0.2 -4 -1.2 -7.9 -2.3 -9.8 -6 -10.1 -21.8 -10.1 -27.9 0.1 -1.5 2.5 -2 5.1 -2 10.8 0 8.7 1.8 13.3 6.8 16.8 2.7 2 4.2 2.3 9.4 2 4.3 -0.3 7.2 -1 9 -2.4z"/>
  <path d="M156.7 126.3 c-6.2 -2.1 -13.1 -8.2 -16.5 -14.7 -2.4 -4.6 -2.7 -6.2 -2.7 -15.1 0 -11.4 1.8 -16.4 8.2 -23 11.3 -11.7 32 -12.1 45 -1.1 1.8 1.5 4.6 5.6 6.3 9 2.6 5.3 3.2 7.6 3.2 13.8 0.1 10.6 -2.2 17 -8.6 23.4 -8.8 8.8 -22.5 11.8 -34.9 7.7z m21 -13.9 c6.9 -5 9.4 -17.5 5.2 -26 -5.4 -11.3 -21.9 -12 -28.4 -1.2 -1.5 2.5 -2 5.1 -2 10.8 0 8.7 1.8 13.3 6.8 16.8 2.7 2 4.2 2.3 9.4 2 4.3 -0.3 7.2 -1 9 -2.4z"/>
  <path d="M355.2 125.4 c-5.9 -2.9 -10.6 -7.9 -13.6 -14.3 -1.7 -3.8 -2.1 -6.5 -2.1 -15.1 0 -10 0.1 -10.8 3.4 -16.8 4 -7.3 9.2 -11.6 17 -13.9 9.1 -2.6 17.2 -0.7 24.6 5.8 l3.5 3.1 0 -4.6 0 -4.6 7.5 0 7.5 0 0 31 0 31 -7.5 0 -7.5 0 0 -4.7 0 -4.7 -3.7 3.6 c-5 4.9 -9.9 6.8 -17.6 6.8 -4.8 0 -7.6 -0.6 -11.5 -2.6z m24.9 -12.7 c7.1 -4.8 10.1 -16.5 6.5 -25 -4.3 -10.1 -17.4 -13.4 -26.1 -6.5 -7.6 6 -8.5 20.5 -1.7 28.2 5.3 6 15 7.5 21.3 3.3z"/>
  <path d="M438 126 c-2.5 -1.2 -5.7 -3.3 -7.2 -4.7 l-2.8 -2.7 0 4.2 0 4.2 -7.5 0 -7.5 0 0 -41.5 0 -41.5 7.5 0 7.5 0 0 15.2 0 15.2 3.3 -3.1 c10.1 -9.6 25.3 -9.5 35.7 0.3 15 14.1 12.5 43 -4.6 53 -6.5 3.8 -17.8 4.4 -24.4 1.4z m15.1 -13.3 c7 -4.7 10.1 -13.4 7.9 -21.8 -2.1 -7.5 -6.5 -11.9 -13.6 -13.2 -7.4 -1.4 -16.1 3.8 -18.5 11.1 -1.8 5.4 -0.7 15.2 2 19.1 5.2 7.3 15.3 9.5 22.2 4.8z"/>
  <path d="M13 88 l0 -39 7.5 0 7.5 0 0.2 33.3 0.3 33.2 13.2 0.3 13.1 0.3 0 5.4 -0.1 5.5 -20.8 0 -20.9 0 0 -39z"/>
  <path d="M210 85.5 l0 -41.5 7.5 0 7.5 0 0.2 24 0.3 24 10.5 -13.4 10.5 -13.5 9.8 0 9.8 -0.1 -12.3 14.1 c-6.8 7.7 -12.9 14.9 -13.6 15.9 -1.2 1.7 0 3.3 12.3 16.9 l13.6 15.1 -9.8 0 -9.8 0 -10.5 -13.3 -10.5 -13.2 -0.3 13.3 -0.3 13.2 -7.4 0 -7.5 0 0 -41.5z"/>
 </g>
</svg>